<svg width="24" height="25" viewBox="0 0 24 25" fill="none" xmlns="http://www.w3.org/2000/svg">
<g clip-path="url(#clip0_0_81)">
<path d="M5.82482 18.4665H0.140625V24.1507H5.82482V18.4665Z" fill="black"/>
<path d="M5.82482 9.53488H0.140625V15.2191H5.82482V9.53488Z" fill="black"/>
<path d="M5.82482 0.601471H0.140625V6.28567H5.82482V0.601471Z" fill="black"/>
<path d="M14.7582 18.4665H9.07404V24.1507H14.7582V18.4665Z" fill="black"/>
<path d="M14.7582 9.53488H9.07404V15.2191H14.7582V9.53488Z" fill="black"/>
<path d="M14.7582 0.601471H9.07404V6.28567H14.7582V0.601471Z" fill="black"/>
<path d="M23.6899 18.4665H18.0057V24.1507H23.6899V18.4665Z" fill="black"/>
<path d="M23.6899 9.53488H18.0057V15.2191H23.6899V9.53488Z" fill="black"/>
<path d="M23.6899 0.601471H18.0057V6.28567H23.6899V0.601471Z" fill="black"/>
</g>
<defs>
<clipPath id="clip0_0_81">
<rect width="23.5488" height="23.5488" fill="white" transform="translate(0.140625 0.601471)"/>
</clipPath>
</defs>
</svg>
